<?xml version="1.0" encoding="UTF-8" standalone="no"?>
<svg width="263px" height="518px" viewBox="0 0 263 518" version="1.1" xmlns="http://www.w3.org/2000/svg" xmlns:xlink="http://www.w3.org/1999/xlink">
    <!-- Generator: Sketch 3.7.2 (28276) - http://www.bohemiancoding.com/sketch -->
    <title>Group</title>
    <desc>Created with Sketch.</desc>
    <defs>
        <path d="M2,34.9941364 C2,15.6674085 17.6665916,0 36.9972041,0 L226.002796,0 C245.331218,0 261,15.6792092 261,34.9941364 L261,483.005864 C261,502.332591 245.333408,518 226.002796,518 L36.9972041,518 C17.668782,518 2,502.320791 2,483.005864 L2,34.9941364 Z M22,70 L243,70 L243,444 L22,444 L22,70 Z" id="path-1"></path>
        <mask id="mask-2" maskContentUnits="userSpaceOnUse" maskUnits="objectBoundingBox" x="0" y="0" width="259" height="518" fill="white">
            <use xlink:href="#path-1"></use>
        </mask>
        <rect id="path-3" x="18" y="66.1678832" width="229" height="381.883212" rx="5"></rect>
        <mask id="mask-4" maskContentUnits="userSpaceOnUse" maskUnits="objectBoundingBox" x="0" y="0" width="229" height="381.883212" fill="white">
            <use xlink:href="#path-3"></use>
        </mask>
        <rect id="path-5" x="103.473881" y="29.9589552" width="54.8248175" height="9.36458915" rx="4.5"></rect>
        <mask id="mask-6" maskContentUnits="userSpaceOnUse" maskUnits="objectBoundingBox" x="0" y="0" width="54.8248175" height="9.36458915" fill="white">
            <use xlink:href="#path-5"></use>
        </mask>
        <rect id="path-7" x="259" y="111" width="4" height="45" rx="4"></rect>
        <mask id="mask-8" maskContentUnits="userSpaceOnUse" maskUnits="objectBoundingBox" x="0" y="0" width="4" height="45" fill="white">
            <use xlink:href="#path-7"></use>
        </mask>
        <rect id="path-9" x="0" y="111" width="4" height="45" rx="4"></rect>
        <mask id="mask-10" maskContentUnits="userSpaceOnUse" maskUnits="objectBoundingBox" x="0" y="0" width="4" height="45" fill="white">
            <use xlink:href="#path-9"></use>
        </mask>
        <rect id="path-11" x="0" y="68" width="4" height="23" rx="4"></rect>
        <mask id="mask-12" maskContentUnits="userSpaceOnUse" maskUnits="objectBoundingBox" x="0" y="0" width="4" height="23" fill="white">
            <use xlink:href="#path-11"></use>
        </mask>
        <rect id="path-13" x="0" y="163" width="4" height="45" rx="4"></rect>
        <mask id="mask-14" maskContentUnits="userSpaceOnUse" maskUnits="objectBoundingBox" x="0" y="0" width="4" height="45" fill="white">
            <use xlink:href="#path-13"></use>
        </mask>
    </defs>
    <g id="Page-1" stroke="none" stroke-width="1" fill="none" fill-rule="evenodd">
        <g id="Group">
            <use id="Combined-Shape" stroke="#212121" mask="url(#mask-2)" stroke-width="8" fill="#FFFFFF" xlink:href="#path-1"></use>
            <ellipse id="Oval-3" stroke="#212121" stroke-width="4" fill="#FFFFFF" cx="130.554745" cy="480.189781" rx="18.9051095" ry="18.9051095"></ellipse>
            <use id="Rectangle-3" stroke="#212121" mask="url(#mask-4)" stroke-width="8" xlink:href="#path-3"></use>
            <use id="Rectangle-4" stroke="#212121" mask="url(#mask-6)" stroke-width="6" xlink:href="#path-5"></use>
            <ellipse id="Oval-4" fill="#212121" cx="89.8183954" cy="34.6654103" rx="4.70645511" ry="4.70645511"></ellipse>
            <use id="Rectangle-6" stroke="#212121" mask="url(#mask-8)" stroke-width="8" xlink:href="#path-7"></use>
            <use id="Rectangle-6" stroke="#212121" mask="url(#mask-10)" stroke-width="8" xlink:href="#path-9"></use>
            <use id="Rectangle-6" stroke="#212121" mask="url(#mask-12)" stroke-width="8" xlink:href="#path-11"></use>
            <use id="Rectangle-6" stroke="#212121" mask="url(#mask-14)" stroke-width="8" xlink:href="#path-13"></use>
        </g>
    </g>
</svg>