<svg xmlns="http://www.w3.org/2000/svg" xmlns:xlink="http://www.w3.org/1999/xlink" version="1.1" x="0px" y="0px" viewBox="0 0 100 125" enable-background="new 0 0 100 100" xml:space="preserve"><path fill="#212121" d="M43.841,71.869c6.075,0,11.019-4.943,11.019-11.019V28.143h13.672c1.104,0,2-0.896,2-2s-0.896-2-2-2H52.859  c-1.104,0-2,0.896-2,2v26.221c-1.908-1.58-4.354-2.532-7.019-2.532c-6.075,0-11.018,4.943-11.018,11.018  C32.823,66.926,37.766,71.869,43.841,71.869z M43.841,53.832c3.87,0,7.019,3.148,7.019,7.018c0,3.87-3.148,7.019-7.019,7.019  c-3.869,0-7.018-3.148-7.018-7.019C36.823,56.981,39.972,53.832,43.841,53.832z"/><!-- <text x="0" y="115" fill="#000000" font-size="5px" font-weight="bold" font-family="'Helvetica Neue', Helvetica, Arial-Unicode, Arial, Sans-serif">Created by Collectif Intro</text><text x="0" y="120" fill="#000000" font-size="5px" font-weight="bold" font-family="'Helvetica Neue', Helvetica, Arial-Unicode, Arial, Sans-serif">from the Noun Project</text> --></svg>