<svg xmlns="http://www.w3.org/2000/svg" xmlns:xlink="http://www.w3.org/1999/xlink" version="1.1" x="0px" y="0px" viewBox="0 0 100 125" enable-background="new 0 0 100 100" xml:space="preserve"><path fill="#212121" d="M74.996,30.149c0-1.104-0.896-2-2-2H45.04c-1.104,0-2,0.896-2,2V56.37c-1.908-1.58-4.354-2.532-7.019-2.532  c-6.075,0-11.018,4.943-11.018,11.018s4.942,11.018,11.018,11.018S47.04,70.932,47.04,64.856V32.149h23.956v12.144  c-1.907-1.58-4.353-2.531-7.018-2.531c-6.075,0-11.019,4.943-11.019,11.018s4.943,11.018,11.019,11.018s11.018-4.943,11.018-11.018  c0-0.227-0.021-0.448-0.034-0.672c0.019-0.11,0.034-0.222,0.034-0.338V30.149z M36.021,71.874c-3.869,0-7.018-3.148-7.018-7.018  s3.148-7.018,7.018-7.018c3.87,0,7.019,3.148,7.019,7.018S39.892,71.874,36.021,71.874z M63.979,59.798  c-3.87,0-7.019-3.148-7.019-7.018s3.148-7.018,7.019-7.018c3.869,0,7.018,3.148,7.018,7.018S67.848,59.798,63.979,59.798z"/><!-- <text x="0" y="115" fill="#000000" font-size="5px" font-weight="bold" font-family="'Helvetica Neue', Helvetica, Arial-Unicode, Arial, Sans-serif">Created by Collectif Intro</text><text x="0" y="120" fill="#000000" font-size="5px" font-weight="bold" font-family="'Helvetica Neue', Helvetica, Arial-Unicode, Arial, Sans-serif">from the Noun Project</text> --></svg>